# xmcd CD database file
#
# Track frame offsets:
#	150
#	13693
#	26737
#	43519
#	59586
#	72593
#	90762
#	108469
#	124363
#	137820
#	151003
#
# Disc length: 2258 seconds
#
# Revision: 5
# Processed by: cddbd v1.5.2PL0 Copyright (c) Steve Scherf et al.
# Submitted via: CDex 2.21
#
DISCID=9208d00b
DTITLE=Michelle Wright - Strong
DYEAR=2013
DGENRE=Country
TTITLE0=Strong
TTITLE1=Crazy Stupid Love
TTITLE2=One of These Days
TTITLE3=What's Better Than This
TTITLE4=Laugh a Little
TTITLE5=She's a Keeper
TTITLE6=Another Good Day
TTITLE7=Together Forever
TTITLE8=Walkin' on a Heart That's Breakin'
TTITLE9=Back to You
TTITLE10=I'll Cry Too
EXTD=YEAR: 2013
EXTT0=
EXTT1=
EXTT2=
EXTT3=
EXTT4=
EXTT5=
EXTT6=
EXTT7=
EXTT8=
EXTT9=
EXTT10=
PLAYORDER=
